# xmcd
#
# Track frame offsets:
#	150
#	15818
#	30861
#	51580
#	70687
#	89382
#	110516
#	128166
#	141910
#	161547
#
# Disc length: 2362 seconds
#
# Revision: 2
# Processed by: cddbd v1.5.2PL0 Copyright (c) Steve Scherf et al.
# Submitted via: EasyCDDAExtractor 10.0.5.1
#
DISCID=7909380a
DTITLE=Paco de Lucia - recital de guitarra 
DYEAR=1971
DGENRE=Flamenco
TTITLE0=El vito
TTITLE1=Mi inspiracion
TTITLE2=Malaguena de lecuona
TTITLE3=Serrana de malaga
TTITLE4=Ramba improvisada
TTITLE5=Tempas del pueblo
TTITLE6=Plazuela
TTITLE7=Zarda de monty
TTITLE8=Andalucia de lecuona
TTITLE9=Fuente nueva
EXTD=
EXTT0=
EXTT1=
EXTT2=
EXTT3=
EXTT4=
EXTT5=
EXTT6=
EXTT7=
EXTT8=
EXTT9=
PLAYORDER=
